Coordinates
version=1
nRows=6
nColumns=63
inDegrees=yes

Units are S.I. units (second, meters, Newtons, ...)
If the header above contains a line with 'inDegrees', this indicates whether rotational values are in degrees (yes) or radians (no).

endheader
time	pelvis_tilt	pelvis_list	pelvis_rotation	pelvis_tx	pelvis_ty	pelvis_tz	hip_flexion_r	hip_adduction_r	hip_rotation_r	knee_angle_r	knee_angle_r_beta	ankle_angle_r	subtalar_angle_r	mtp_angle_r	hip_flexion_l	hip_adduction_l	hip_rotation_l	knee_angle_l	knee_angle_l_beta	ankle_angle_l	subtalar_angle_l	mtp_angle_l	L5_S1_Flex_Ext	L5_S1_Lat_Bending	L5_S1_axial_rotation	L4_L5_Flex_Ext	L4_L5_Lat_Bending	L4_L5_axial_rotation	L3_L4_Flex_Ext	L3_L4_Lat_Bending	L3_L4_axial_rotation	L2_L3_Flex_Ext	L2_L3_Lat_Bending	L2_L3_axial_rotation	L1_L2_Flex_Ext	L1_L2_Lat_Bending	L1_L2_axial_rotation	L1_T12_Flex_Ext	L1_T12_Lat_Bending	L1_T12_axial_rotation	Abs_r3	Abs_r2	Abs_r1	Abs_t1	Abs_t2	neck_flexion	neck_bending	neck_rotation	arm_flex_r	arm_add_r	arm_rot_r	elbow_flex_r	pro_sup_r	wrist_flex_r	wrist_dev_r	arm_flex_l	arm_add_l	arm_rot_l	elbow_flex_l	pro_sup_l	wrist_flex_l	wrist_dev_l
      0.00000000	      3.03062106	    -14.84119340	    104.64564371	      0.16863409	      0.35249574	      0.66171694	      9.21898658	     -2.65734695	    -17.26528757	     16.36019666	      0.28553930	     21.54659907	    -11.81550981	      0.00000000	      7.27016845	     -1.64238594	     -9.98731127	     12.27346769	      0.21421242	     35.04410673	      5.79627756	      0.00000000	      0.36705551	      0.10660613	     -0.00517768	      0.68165879	      0.14178615	     -0.00550129	      0.60303550	      0.25920214	     -0.00550129	      0.41950774	      0.25920214	     -0.00453047	      0.34084775	      0.21739122	     -0.00420687	      0.20973552	      0.16513289	     -0.00388326	      2.62184080	      1.20594984	     -0.02879671	      0.00000000	      0.00000000	     28.13297515	      2.08737645	     -3.59803562	     17.29847860	    -18.18863552	     81.28389146	     54.80951968	     37.86170062	      9.49497531	     -8.20795356	     14.06142010	     -8.97366943	     66.30779409	     52.42804488	     59.10150182	     11.56299070	     -2.71818013
      0.02040816	      3.02371384	    -14.53241365	    104.81990051	      0.16704796	      0.35271602	      0.65981964	      8.64480751	     -2.62224527	    -17.24580843	     15.72542520	      0.27446045	     22.97252607	    -10.83095879	      0.00000000	      6.85889891	     -1.80108185	    -11.33585822	     12.12454138	      0.21161317	     35.75848810	      7.01456051	      0.00000000	      0.33276857	      0.12111627	      0.05596324	      0.61798451	      0.16108464	      0.05946094	      0.54670548	      0.29448210	      0.05946094	      0.38032120	      0.29448210	      0.04896784	      0.30900889	      0.24698030	      0.04547013	      0.19014396	      0.18760910	      0.04197243	      2.37693261	      1.37009146	      0.31125076	      0.00000000	      0.00000000	     27.99326311	      0.16341493	     -5.03270878	     15.36586345	    -18.23552453	     77.92145077	     54.26797952	     47.53712376	      7.34393081	     -7.47631790	     14.02674933	     -8.66298344	     66.31016143	     52.52439733	     58.07353981	     12.31611742	     -0.40864960
      0.04081633	      3.05407922	    -14.12746017	    104.85530479	      0.16552749	      0.35304465	      0.65823904	      7.97766833	     -2.46757810	    -16.89690075	     15.13329054	      0.26412575	     23.75277249	    -10.53651486	      0.00000000	      6.33019949	     -1.89112015	    -11.56843902	     12.00346064	      0.20949991	     35.96493885	      6.83836102	      0.00000000	      0.28694194	      0.14761570	      0.02709643	      0.53287989	      0.19632889	      0.02878995	      0.47141692	      0.35891282	      0.02878995	      0.32794595	      0.35891282	      0.02370937	      0.26645429	      0.30101794	      0.02201585	      0.16395863	      0.22865673	      0.02032232	      2.04959762	      1.66985837	      0.15070219	      0.00000000	      0.00000000	     27.80659187	     -0.72108114	     -5.00534680	     15.04679230	    -18.01353459	     78.32999879	     53.60280535	     48.52458583	      6.35147371	     -6.53318401	     13.82784001	     -8.47387153	     66.54944610	     52.23765767	     58.03332388	     12.12158513	      0.06865020
      0.06122449	      3.18513864	    -13.81099384	    104.89287660	      0.16389603	      0.35320247	      0.65702815	      7.52127357	     -2.41720944	    -17.58112190	     14.91701252	      0.26035098	     24.58464413	     -9.04352925	      0.00000000	      5.94281210	     -2.02831953	    -11.66778268	     11.99165215	      0.20929381	     36.00361730	      6.59402701	      0.00000000	      0.25898267	      0.17842100	     -0.00251450	      0.48095672	      0.23729993	     -0.00267165	      0.42548263	      0.43381283	     -0.00267165	      0.29599129	      0.43381283	     -0.00220018	      0.24049131	      0.36383611	     -0.00204303	      0.14798270	      0.27637413	     -0.00188587	      1.84988732	      2.01833406	     -0.01398487	      0.00000000	      0.00000000	     27.58026346	     -1.33463062	     -5.30583434	     14.58507398	    -17.68900299	     77.26785655	     52.68648231	     58.01268284	      5.09276510	     -5.80845658	     13.73989516	     -8.25392866	     67.73449985	     51.67632376	     56.70645823	     10.69251134	     -0.13578700
      0.08163265	      3.29721704	    -13.59260585	    104.81170381	      0.16263493	      0.35317165	      0.65602020	      7.26134102	     -2.29385294	    -17.38218610	     14.86018704	      0.25935919	     24.99276003	     -9.01233126	      0.00000000	      5.66240938	     -2.13927242	    -11.79202280	     12.06665478	      0.21060286	     36.03178353	      6.44878705	      0.00000000	      0.24615411	      0.19962847	     -0.04112766	      0.45713280	      0.26550586	     -0.04369814	      0.40440659	      0.48537665	     -0.04369814	      0.28132953	      0.48537665	     -0.03598671	      0.22857871	      0.40708237	     -0.03341623	      0.14065246	      0.30922449	     -0.03084575	      1.75825420	      2.25823712	     -0.22873973	      0.00000000	      0.00000000	     27.37270613	     -1.46402903	     -5.23779147	     14.39849950	    -17.13860096	     77.62514586	     51.54837147	     57.98670593	      4.94361392	     -5.25652776	     13.34163506	     -7.98841712	     67.98595883	     50.78298953	     56.78427041	     10.29980271	     -0.06805796
      0.10204082	      3.40588928	    -13.27342206	    104.60982737	      0.16167441	      0.35335093	      0.65515239	      6.85568966	     -2.11472635	    -17.08839002	     14.72989030	      0.25708508	     25.17627160	     -8.82853276	      0.00000000	      5.26876049	     -2.27645316	    -11.90320992	     12.14665803	      0.21199918	     35.91068220	      6.28883537	      0.00000000	      0.21521955	      0.22187554	     -0.09074917	      0.39968423	      0.29509447	     -0.09642099	      0.35358420	      0.53946819	     -0.09642099	      0.24597443	      0.53946819	     -0.07940553	      0.19985288	      0.45244861	     -0.07373370	      0.12297645	      0.34368521	     -0.06806188	      1.53729173	      2.50990051	     -0.50471967	      0.00000000	      0.00000000	     27.16352617	     -1.56420315	     -5.09992606	     14.40849670	    -16.40505885	     78.03314126	     50.24188261	     57.67274467	      5.02127102	     -4.34791668	     12.88776725	     -7.73154538	     68.08771900	     49.72761443	     56.81062581	      9.51206517	     -0.35095809
